HIERARCHY
ROOT __0
{
	OFFSET 0.0 0.0 0.0
	CHANNELS 0
	JOINT Bone
	{
		OFFSET -0.441137 0.000000 -0.879299
		CHANNELS 6 Xposition Yposition Zposition Xrotation Yrotation Zrotation
		JOINT Bone.001
		{
			OFFSET -1.044118 0.000000 2.758596
			CHANNELS 3 Xrotation Yrotation Zrotation
			JOINT Bone.002
			{
				OFFSET -0.197107 -0.120437 2.846406
				CHANNELS 3 Xrotation Yrotation Zrotation
				JOINT Bone.003
				{
					OFFSET -0.841422 0.120437 2.826213
					CHANNELS 3 Xrotation Yrotation Zrotation
					JOINT Bone.004
					{
						OFFSET -0.201381 -0.000000 2.503220
						CHANNELS 3 Xrotation Yrotation Zrotation
						JOINT Bone.005
						{
							OFFSET 0.778249 -0.000000 4.437727
							CHANNELS 6 Xposition Yposition Zposition Xrotation Yrotation Zrotation
							JOINT Bone.006
							{
								OFFSET 0.387982 0.000000 0.969224
								CHANNELS 3 Xrotation Yrotation Zrotation
								JOINT Bone.007
								{
									OFFSET 0.129733 -0.000000 2.383711
									CHANNELS 3 Xrotation Yrotation Zrotation
									JOINT Bone.007_end
									{
										OFFSET 0.851824 -0.000000 3.284870
										CHANNELS 3 Xrotation Yrotation Zrotation
										End Site
										{
											OFFSET 0.851824 -0.000000 3.284870
										}
									}
								}
							}
						}
						JOINT lats.l
						{
							OFFSET 0.778249 -0.000000 4.437727
							CHANNELS 6 Xposition Yposition Zposition Xrotation Yrotation Zrotation
							JOINT shoulder.l
							{
								OFFSET 0.479078 4.011610 -1.588903
								CHANNELS 3 Xrotation Yrotation Zrotation
								JOINT upper_arm.l
								{
									OFFSET -0.278611 1.947668 -1.744180
									CHANNELS 3 Xrotation Yrotation Zrotation
									JOINT forarm.l
									{
										OFFSET -0.656402 2.906964 -5.465096
										CHANNELS 3 Xrotation Yrotation Zrotation
										JOINT hand_1.l
										{
											OFFSET 1.213382 3.372078 -5.261601
											CHANNELS 3 Xrotation Yrotation Zrotation
											JOINT finger_1_1.l
											{
												OFFSET 1.915073 -0.154698 -2.425662
												CHANNELS 3 Xrotation Yrotation Zrotation
												JOINT finger_1_2.l
												{
													OFFSET 0.265828 0.018154 -0.982053
													CHANNELS 3 Xrotation Yrotation Zrotation
													JOINT finger_1_2.l_end
													{
														OFFSET 0.259668 -0.058760 -0.818377
														CHANNELS 3 Xrotation Yrotation Zrotation
														End Site
														{
															OFFSET 0.259668 -0.058760 -0.818377
														}
													}
												}
											}
										}
										JOINT hand_2.l
										{
											OFFSET 1.213382 3.372078 -5.261601
											CHANNELS 3 Xrotation Yrotation Zrotation
											JOINT finger_2_1.l
											{
												OFFSET 1.082807 1.055983 -3.153127
												CHANNELS 3 Xrotation Yrotation Zrotation
												JOINT finger_2_2.l
												{
													OFFSET 0.303461 0.229445 -0.943015
													CHANNELS 3 Xrotation Yrotation Zrotation
													JOINT finger_2_3.l
													{
														OFFSET 0.164459 -0.032780 -0.944187
														CHANNELS 3 Xrotation Yrotation Zrotation
														JOINT finger_2_3.l_end
														{
															OFFSET 0.124730 -0.053766 -0.660824
															CHANNELS 3 Xrotation Yrotation Zrotation
															End Site
															{
																OFFSET 0.124730 -0.053766 -0.660825
															}
														}
													}
												}
											}
										}
										JOINT hand_3.l
										{
											OFFSET 1.213382 3.372078 -5.261601
											CHANNELS 3 Xrotation Yrotation Zrotation
											JOINT finger_3_1.l
											{
												OFFSET 0.438745 1.366320 -3.503445
												CHANNELS 3 Xrotation Yrotation Zrotation
												JOINT finger_3_2.l
												{
													OFFSET 0.039193 0.200943 -0.808669
													CHANNELS 3 Xrotation Yrotation Zrotation
													JOINT finger_3_3.l
													{
														OFFSET 0.045546 0.076140 -0.989924
														CHANNELS 3 Xrotation Yrotation Zrotation
														JOINT finger_3_3.l_end
														{
															OFFSET -0.026910 0.082433 -0.590995
															CHANNELS 3 Xrotation Yrotation Zrotation
															End Site
															{
																OFFSET -0.026910 0.082433 -0.590995
															}
														}
													}
												}
											}
										}
										JOINT hand_4.l
										{
											OFFSET 1.213382 3.372078 -5.261601
											CHANNELS 3 Xrotation Yrotation Zrotation
											JOINT finger_4_1.l
											{
												OFFSET -0.299673 1.339034 -3.150754
												CHANNELS 3 Xrotation Yrotation Zrotation
												JOINT finger_4_2.l
												{
													OFFSET -0.040232 0.259658 -0.991301
													CHANNELS 3 Xrotation Yrotation Zrotation
													JOINT finger_4_3.l
													{
														OFFSET -0.049955 -0.074366 -0.704639
														CHANNELS 3 Xrotation Yrotation Zrotation
														JOINT finger_4_3.l_end
														{
															OFFSET -0.038561 0.010272 -0.631543
															CHANNELS 3 Xrotation Yrotation Zrotation
															End Site
															{
																OFFSET -0.038561 0.010272 -0.631544
															}
														}
													}
												}
											}
										}
										JOINT hand_5.l
										{
											OFFSET 1.213382 3.372078 -5.261601
											CHANNELS 3 Xrotation Yrotation Zrotation
											JOINT finger_5_1.l
											{
												OFFSET -0.897300 1.214401 -3.085588
												CHANNELS 3 Xrotation Yrotation Zrotation
												JOINT finger_5_2.l
												{
													OFFSET -0.175868 0.027259 -0.471411
													CHANNELS 3 Xrotation Yrotation Zrotation
													JOINT finger_5_3.l
													{
														OFFSET -0.183997 -0.195309 -0.687122
														CHANNELS 3 Xrotation Yrotation Zrotation
														JOINT finger_5_3.l_end
														{
															OFFSET -0.109424 -0.138382 -0.509002
															CHANNELS 3 Xrotation Yrotation Zrotation
															End Site
															{
																OFFSET -0.109424 -0.138382 -0.509002
															}
														}
													}
												}
											}
										}
									}
								}
							}
						}
						JOINT lats.r
						{
							OFFSET 0.787371 0.000134 4.437727
							CHANNELS 6 Xposition Yposition Zposition Xrotation Yrotation Zrotation
							JOINT shoulder.r
							{
								OFFSET 0.465146 -4.086555 -1.588903
								CHANNELS 3 Xrotation Yrotation Zrotation
								JOINT upper_arm.r
								{
									OFFSET -0.284825 -1.931523 -1.744180
									CHANNELS 3 Xrotation Yrotation Zrotation
									JOINT forarm.r
									{
										OFFSET -0.654372 -2.870988 -5.465096
										CHANNELS 3 Xrotation Yrotation Zrotation
										JOINT hand_1.r
										{
											OFFSET 0.752152 -3.427905 -5.261599
											CHANNELS 3 Xrotation Yrotation Zrotation
											JOINT finger_1_1.r
											{
												OFFSET 1.880342 0.268991 -2.425664
												CHANNELS 3 Xrotation Yrotation Zrotation
												JOINT finger_1_2.r
												{
													OFFSET 0.412765 -0.031263 -0.982053
													CHANNELS 3 Xrotation Yrotation Zrotation
													JOINT finger_1_2.r_end
													{
														OFFSET 0.265487 -0.028934 -0.818377
														CHANNELS 3 Xrotation Yrotation Zrotation
														End Site
														{
															OFFSET 0.265487 -0.028934 -0.818377
														}
													}
												}
											}
										}
										JOINT hand_2.r
										{
											OFFSET 0.752152 -3.427905 -5.261599
											CHANNELS 3 Xrotation Yrotation Zrotation
											JOINT finger_2_1.r
											{
												OFFSET 1.098547 -1.108187 -3.153125
												CHANNELS 3 Xrotation Yrotation Zrotation
												JOINT finger_2_2.r
												{
													OFFSET 0.291755 0.021010 -0.943020
													CHANNELS 3 Xrotation Yrotation Zrotation
													JOINT finger_2_3.r
													{
														OFFSET 0.186568 0.006100 -0.944185
														CHANNELS 3 Xrotation Yrotation Zrotation
														JOINT finger_2_3.r_end
														{
															OFFSET 0.133039 -0.006334 -0.660824
															CHANNELS 3 Xrotation Yrotation Zrotation
															End Site
															{
																OFFSET 0.133039 -0.006334 -0.660825
															}
														}
													}
												}
											}
										}
										JOINT hand_3.r
										{
											OFFSET 0.752152 -3.427905 -5.261599
											CHANNELS 3 Xrotation Yrotation Zrotation
											JOINT finger_3_1.r
											{
												OFFSET 0.373696 -1.343682 -3.332383
												CHANNELS 3 Xrotation Yrotation Zrotation
												JOINT finger_3_2.r
												{
													OFFSET 0.085230 -0.157215 -0.979734
													CHANNELS 3 Xrotation Yrotation Zrotation
													JOINT finger_3_3.r
													{
														OFFSET 0.018107 -0.037604 -0.989924
														CHANNELS 3 Xrotation Yrotation Zrotation
														JOINT finger_3_3.r_end
														{
															OFFSET 0.010870 -0.087893 -0.590995
															CHANNELS 3 Xrotation Yrotation Zrotation
															End Site
															{
																OFFSET 0.010870 -0.087893 -0.590994
															}
														}
													}
												}
											}
										}
										JOINT hand_4.r
										{
											OFFSET 0.752152 -3.427905 -5.261599
											CHANNELS 3 Xrotation Yrotation Zrotation
											JOINT finger_4_1.r
											{
												OFFSET -0.266866 -1.284353 -3.150754
												CHANNELS 3 Xrotation Yrotation Zrotation
												JOINT finger_4_2.r
												{
													OFFSET -0.081403 -0.106487 -0.991301
													CHANNELS 3 Xrotation Yrotation Zrotation
													JOINT finger_4_3.r
													{
														OFFSET -0.046220 0.038109 -0.704639
														CHANNELS 3 Xrotation Yrotation Zrotation
														JOINT finger_4_3.r_end
														{
															OFFSET -0.054081 -0.011491 -0.631543
															CHANNELS 3 Xrotation Yrotation Zrotation
															End Site
															{
																OFFSET -0.054081 -0.011491 -0.631543
															}
														}
													}
												}
											}
										}
										JOINT hand_5.r
										{
											OFFSET 0.752152 -3.427905 -5.261599
											CHANNELS 3 Xrotation Yrotation Zrotation
											JOINT finger_5_1.r
											{
												OFFSET -0.929662 -1.118169 -3.085588
												CHANNELS 3 Xrotation Yrotation Zrotation
												JOINT finger_5_2.r
												{
													OFFSET -0.166172 0.015477 -0.471413
													CHANNELS 3 Xrotation Yrotation Zrotation
													JOINT finger_5_3.r
													{
														OFFSET -0.186638 0.183818 -0.687119
														CHANNELS 3 Xrotation Yrotation Zrotation
														JOINT finger_5_3.r_end
														{
															OFFSET -0.064874 0.172217 -0.509002
															CHANNELS 3 Xrotation Yrotation Zrotation
															End Site
															{
																OFFSET -0.064874 0.172217 -0.509002
															}
														}
													}
												}
											}
										}
									}
								}
							}
						}
					}
				}
			}
		}
	}
	JOINT hip.l
	{
		OFFSET -0.441137 0.000000 -0.879299
		CHANNELS 6 Xposition Yposition Zposition Xrotation Yrotation Zrotation
		JOINT upper_leg.l
		{
			OFFSET 0.314229 2.757148 -1.947668
			CHANNELS 3 Xrotation Yrotation Zrotation
			JOINT lower_leg.l
			{
				OFFSET -1.127799 1.126559 -10.151125
				CHANNELS 3 Xrotation Yrotation Zrotation
				JOINT foot_1.l
				{
					OFFSET -0.944283 0.488371 -12.211979
					CHANNELS 3 Xrotation Yrotation Zrotation
					JOINT foot_2.l
					{
						OFFSET 1.946432 0.043195 -1.464783
						CHANNELS 3 Xrotation Yrotation Zrotation
						JOINT foot_2.l_end
						{
							OFFSET 2.546019 0.158223 -0.481493
							CHANNELS 3 Xrotation Yrotation Zrotation
							End Site
							{
								OFFSET 2.546019 0.158223 -0.481493
							}
						}
					}
				}
			}
		}
	}
	JOINT hip.r
	{
		OFFSET -0.435242 0.002287 -0.879299
		CHANNELS 6 Xposition Yposition Zposition Xrotation Yrotation Zrotation
		JOINT upper_leg.r
		{
			OFFSET 0.304085 -2.902024 -1.947668
			CHANNELS 3 Xrotation Yrotation Zrotation
			JOINT lower_leg.r
			{
				OFFSET -1.129197 -1.069468 -10.151123
				CHANNELS 3 Xrotation Yrotation Zrotation
				JOINT foot_1.r
				{
					OFFSET -0.940627 -0.441122 -12.211980
					CHANNELS 3 Xrotation Yrotation Zrotation
					JOINT foot_2.r
					{
						OFFSET 1.941922 -0.139302 -1.464783
						CHANNELS 3 Xrotation Yrotation Zrotation
						JOINT foot_2.r_end
						{
							OFFSET 2.544673 -0.283811 -0.481493
							CHANNELS 3 Xrotation Yrotation Zrotation
							End Site
							{
								OFFSET 2.544673 -0.283811 -0.481493
							}
						}
					}
				}
			}
		}
	}
}
MOTION
Frames: 4
Frame Time: 0.041667
-0.441137 0.000000 -1.881994 -0.000001 2.692813 0.000003 0.000001 -0.000001 -0.000000 0.000001 0.000000 0.000000 0.000001 0.000001 -0.000002 -0.000000 -0.000005 0.000000 0.778248 -0.000000 4.437731 -0.000000 0.000002 0.000000 -0.000000 2.021423 -0.000000 -0.000000 0.000003 -0.000000 0.000000 -0.000000 0.000000 0.778578 -0.000000 4.436031 -0.000007 -21.894658 -0.000001 -7.218698 4.006017 -17.534474 8.854450 -42.753976 -24.745506 88.783191 -45.607178 -1.884773 -6.337355 5.311835 -1.446859 -0.000000 0.000003 -0.000000 -0.000007 0.000001 0.000001 -0.000001 -0.000003 0.000002 -6.337355 5.311840 -1.446851 -0.000003 0.000004 -0.000001 0.000001 0.000002 0.000001 -0.000004 0.000004 0.000003 0.000002 -0.000002 -0.000000 -6.337347 5.311844 -1.446849 -0.000001 0.000001 -0.000000 0.000000 0.000000 0.000001 -0.000003 0.000003 0.000001 -0.000003 -0.000000 -0.000000 -6.337352 5.311844 -1.446851 -0.000010 0.000001 0.000002 0.000004 -0.000001 -0.000001 -0.000001 0.000001 0.000001 0.000001 -0.000000 0.000000 -6.337359 5.311850 -1.446851 -0.000002 0.000002 -0.000000 -0.000003 -0.000007 -0.000002 0.000001 -0.000005 -0.000000 -0.000008 -0.000002 0.000001 0.787042 0.000134 4.439431 0.000006 -21.894658 -0.000001 6.802673 3.879003 16.499070 -15.702327 -38.953856 22.589953 -98.058601 -55.701139 -28.206048 -1.584527 16.537275 13.094413 0.000002 0.000001 0.000001 0.000005 0.000001 -0.000004 0.000002 0.000001 -0.000002 -1.584526 16.537283 13.094395 -0.000001 -0.000006 0.000005 0.000001 -0.000000 -0.000001 0.000004 0.000002 -0.000002 -0.000003 -0.000001 -0.000000 -1.584529 16.537276 13.094395 -0.000001 0.000001 -0.000004 0.000007 0.000001 -0.000002 -0.000003 -0.000001 0.000000 -0.000000 -0.000001 0.000001 -1.584538 16.537285 13.094395 0.000001 -0.000001 -0.000001 -0.000002 -0.000002 0.000002 0.000003 -0.000004 0.000001 -0.000001 0.000000 0.000002 -1.584523 16.537283 13.094391 -0.000001 0.000007 -0.000002 0.000002 -0.000004 0.000001 0.000001 0.000003 -0.000001 0.000001 0.000003 -0.000002 -0.441137 -0.000000 -1.881994 -0.000006 5.814574 -0.000000 -2.836159 -23.083232 -0.525779 -0.124809 33.180028 1.592841 0.069984 -10.633414 -0.009389 -0.000000 -0.000003 -0.000000 0.000000 -0.000000 -0.000000 -0.435242 0.002287 -1.881994 0.000003 5.814576 0.000003 -2.836152 -23.083241 -0.525777 -0.124805 33.180045 1.592835 0.069985 -10.633402 -0.009398 0.000000 -0.000001 0.000002 0.000001 0.000002 -0.000001 
-0.441137 0.000000 -1.963593 -0.000001 2.719966 0.000003 0.000001 0.000001 0.000000 0.000001 0.000001 0.000000 0.000001 0.000000 -0.000001 -0.000000 -0.000004 0.000000 0.778249 -0.000000 4.437734 -0.000000 0.000002 -0.000000 -0.000000 2.021424 -0.000000 -0.000000 0.000003 -0.000000 -0.000000 -0.000001 0.000000 0.778577 -0.000000 4.436032 -0.000007 -21.894658 -0.000002 -7.215229 3.593418 -17.586830 8.430037 -41.349808 -25.487204 89.752490 -45.488951 -1.055129 -6.337353 5.311839 -1.446859 -0.000005 -0.000001 -0.000002 0.000002 0.000001 0.000003 0.000002 -0.000003 0.000000 -6.337350 5.311839 -1.446853 0.000003 0.000002 -0.000001 -0.000003 0.000002 0.000001 -0.000001 0.000000 0.000000 0.000001 0.000000 0.000001 -6.337343 5.311844 -1.446851 -0.000002 0.000001 -0.000001 -0.000005 0.000000 -0.000001 0.000003 0.000001 0.000001 -0.000002 -0.000000 -0.000001 -6.337346 5.311844 -1.446854 -0.000006 -0.000001 0.000001 0.000004 0.000001 0.000001 -0.000003 0.000000 -0.000000 -0.000001 0.000000 0.000000 -6.337349 5.311849 -1.446851 0.000002 0.000002 -0.000000 -0.000000 -0.000004 -0.000002 -0.000004 -0.000003 0.000000 -0.000006 -0.000000 -0.000001 0.787042 0.000134 4.439433 0.000006 -21.894658 -0.000000 6.799514 3.466038 16.548423 -14.843958 -37.700995 22.803244 -98.790217 -55.662446 -28.933504 -1.584527 16.537273 13.094410 0.000000 -0.000002 0.000005 0.000006 0.000001 -0.000005 0.000000 -0.000001 -0.000003 -1.584530 16.537281 13.094394 0.000004 -0.000006 0.000004 -0.000001 -0.000000 -0.000001 0.000003 0.000001 -0.000003 -0.000000 0.000001 -0.000001 -1.584530 16.537278 13.094396 0.000004 -0.000000 -0.000003 0.000001 0.000001 -0.000003 0.000001 -0.000000 0.000000 0.000000 -0.000002 0.000000 -1.584540 16.537285 13.094395 0.000002 -0.000001 0.000000 -0.000001 -0.000002 0.000000 -0.000008 -0.000002 -0.000001 -0.000005 -0.000000 -0.000001 -1.584525 16.537285 13.094393 -0.000004 0.000003 -0.000001 -0.000001 -0.000000 -0.000001 -0.000001 0.000002 0.000000 -0.000003 -0.000001 -0.000000 -0.441137 -0.000000 -1.963593 -0.000006 5.814574 -0.000000 -2.843448 -23.425196 -0.544241 -0.116967 34.154935 1.619619 0.059952 -11.167002 -0.033533 -0.000000 0.000002 0.000000 0.000000 -0.000001 0.000000 -0.435242 0.002287 -1.963593 0.000003 5.814576 0.000003 -2.843442 -23.425208 -0.544240 -0.116966 34.154948 1.619614 0.059955 -11.166991 -0.033542 0.000002 0.000000 0.000000 -0.000000 0.000000 -0.000000 
-0.441137 0.000000 -2.185076 -0.000001 2.798456 0.000003 0.000001 -0.000001 -0.000000 0.000001 -0.000001 0.000001 0.000001 0.000002 -0.000001 -0.000000 -0.000004 0.000000 0.778249 -0.000000 4.437732 0.000000 0.000000 0.000000 -0.000000 2.021427 -0.000000 -0.000000 0.000004 -0.000000 -0.000000 -0.000002 0.000000 0.778577 -0.000000 4.436030 -0.000007 -21.894655 -0.000003 -7.207283 2.392886 -17.738939 7.398197 -37.409356 -27.452463 92.394558 -45.076233 1.240236 -6.337358 5.311835 -1.446857 0.000005 0.000001 0.000001 -0.000003 0.000005 0.000004 -0.000001 -0.000001 0.000002 -6.337358 5.311841 -1.446851 -0.000003 0.000004 -0.000000 -0.000000 0.000002 0.000001 0.000003 0.000000 0.000000 -0.000005 0.000001 0.000000 -6.337350 5.311843 -1.446850 -0.000004 0.000001 -0.000000 -0.000005 -0.000001 -0.000000 -0.000003 0.000001 0.000000 0.000004 0.000001 0.000000 -6.337356 5.311847 -1.446853 -0.000014 -0.000000 0.000003 0.000005 0.000001 -0.000000 0.000002 -0.000000 -0.000001 0.000003 -0.000002 -0.000001 -6.337359 5.311848 -1.446851 -0.000001 0.000003 0.000001 -0.000002 -0.000003 0.000000 -0.000004 -0.000002 0.000002 -0.000007 0.000001 0.000003 0.787041 0.000134 4.439433 0.000006 -21.894653 0.000001 6.792344 2.264433 16.691796 -12.555973 -34.211816 23.303028 -100.781634 -55.496626 -30.931188 -1.584529 16.537271 13.094406 0.000001 -0.000002 0.000006 -0.000000 -0.000002 -0.000002 0.000002 -0.000001 -0.000003 -1.584528 16.537280 13.094393 0.000000 -0.000004 0.000002 -0.000001 -0.000000 -0.000001 0.000000 -0.000000 0.000000 -0.000000 -0.000001 0.000001 -1.584533 16.537276 13.094390 0.000003 -0.000001 -0.000004 0.000002 -0.000000 -0.000001 -0.000001 -0.000002 0.000000 -0.000001 0.000000 -0.000000 -1.584539 16.537286 13.094390 -0.000002 -0.000002 0.000000 -0.000006 -0.000001 0.000002 -0.000004 -0.000002 0.000001 0.000006 -0.000001 -0.000000 -1.584522 16.537286 13.094391 -0.000001 0.000003 0.000001 0.000000 -0.000003 0.000001 0.000005 0.000001 0.000001 -0.000005 -0.000000 0.000001 -0.441137 -0.000000 -2.185076 -0.000006 5.814574 -0.000000 -2.863952 -24.353885 -0.594872 -0.097984 36.813094 1.693474 0.031422 -12.617222 -0.099880 -0.000000 -0.000000 0.000001 0.000000 0.000001 0.000000 -0.435242 0.002287 -2.185076 0.000003 5.814576 0.000003 -2.863945 -24.353897 -0.594870 -0.097980 36.813101 1.693467 0.031424 -12.617217 -0.099889 -0.000000 -0.000001 0.000001 -0.000000 0.000000 -0.000000 
-0.441137 0.000000 -2.511472 -0.000001 2.923818 0.000003 0.000001 -0.000000 0.000000 0.000001 0.000001 0.000000 0.000001 -0.000001 -0.000001 -0.000000 -0.000004 0.000000 0.778249 -0.000000 4.437732 -0.000000 0.000002 0.000000 -0.000000 2.021425 -0.000000 -0.000000 0.000003 -0.000000 -0.000000 0.000002 -0.000000 0.778578 -0.000000 4.436030 -0.000007 -21.894656 -0.000002 -7.201184 0.451135 -17.984448 6.188994 -31.276577 -30.228641 96.283196 -44.238572 4.681711 -6.337353 5.311842 -1.446859 -0.000002 -0.000000 -0.000004 -0.000001 0.000003 0.000004 -0.000003 -0.000001 0.000002 -6.337352 5.311838 -1.446853 -0.000003 0.000005 0.000001 0.000003 -0.000000 -0.000000 -0.000002 0.000000 0.000001 0.000003 0.000000 -0.000000 -6.337344 5.311843 -1.446850 -0.000007 0.000002 0.000000 0.000000 -0.000000 -0.000001 0.000004 0.000002 -0.000000 0.000001 -0.000001 -0.000001 -6.337348 5.311843 -1.446854 -0.000010 0.000000 0.000000 0.000004 -0.000000 -0.000001 -0.000004 0.000002 0.000000 0.000001 -0.000002 0.000001 -6.337353 5.311848 -1.446852 0.000001 0.000003 -0.000001 0.000003 -0.000007 -0.000003 0.000002 -0.000002 0.000003 -0.000003 -0.000002 -0.000001 0.787041 0.000134 4.439432 0.000006 -21.894663 -0.000001 6.787121 0.320960 16.923240 -9.285429 -28.858348 23.811347 -103.712400 -55.107701 -33.907433 -1.584530 16.537273 13.094410 0.000002 0.000000 0.000005 0.000006 0.000002 -0.000002 0.000001 -0.000000 -0.000002 -1.584528 16.537281 13.094393 0.000002 -0.000006 0.000003 0.000005 0.000001 -0.000001 -0.000001 -0.000003 -0.000001 -0.000001 -0.000003 0.000001 -1.584536 16.537275 13.094395 0.000008 0.000001 -0.000002 0.000006 0.000002 -0.000003 0.000006 0.000001 -0.000001 0.000004 0.000000 -0.000001 -1.584543 16.537283 13.094391 -0.000005 -0.000000 0.000000 0.000001 0.000002 0.000002 -0.000001 -0.000001 -0.000001 -0.000002 -0.000001 0.000001 -1.584528 16.537283 13.094390 -0.000004 0.000005 0.000001 0.000000 -0.000002 -0.000001 0.000002 0.000002 0.000001 -0.000006 -0.000001 0.000001 -0.441137 0.000000 -2.511472 -0.000006 5.814574 -0.000000 -2.896143 -25.723587 -0.670925 -0.076796 40.757433 1.806167 -0.014209 -14.758656 -0.199977 -0.000000 -0.000005 0.000000 -0.000000 0.000001 0.000000 -0.435242 0.002287 -2.511472 0.000003 5.814576 0.000003 -2.896136 -25.723589 -0.670924 -0.076790 40.757450 1.806161 -0.014208 -14.758645 -0.199983 -0.000002 -0.000001 0.000002 -0.000000 -0.000001 -0.000000 
